<svg xmlns="http://www.w3.org/2000/svg" xmlns:svg="http://www.w3.org/2000/svg" id="svg8" width="32" height="32" version="1.1" viewBox="0 0 32 32"><metadata id="metadata5"/><g id="layer1" transform="translate(0,-288.53332)"><path id="path1091" d="m -17,286.53332 v 21.21321 a 3.5355406,3.5355406 0 0 0 3.535535,3.53553 3.5355406,3.5355406 0 0 0 3.535533,-3.53553 v -21.21321 z m 2.474874,20.15255 a 1.4995408,1.4995408 0 0 1 2.12132,0 1.4995408,1.4995408 0 0 1 0,2.12132 1.4995408,1.4995408 0 0 1 -2.121321,0 1.4995408,1.4995408 0 0 1 10e-7,-2.12132 z" style="display:inline;fill:#4d4d4d;fill-opacity:1;fill-rule:evenodd;stroke:none;stroke-width:1px;stroke-linecap:butt;stroke-linejoin:miter;stroke-opacity:1"/><path id="path1025" d="m -12.166456,268.15779 a 7.5027133,7.5003975 0 0 0 -5.368759,2.30541 7.5027133,7.5003975 0 0 0 0.214307,10.60425 7.5027133,7.5003975 0 0 0 10.607479,-0.21432 7.5027133,7.5003975 0 0 0 1.895827,-6.87413 L -9.310811,278.47088 -14,277.53332 l -0.937842,-4.68776 4.491374,-4.49002 a 7.5027133,7.5003975 0 0 0 -1.719988,-0.19775 z" style="display:inline;opacity:1;fill:#4d4d4d;fill-opacity:1;fill-rule:nonzero;stroke:none;stroke-width:2.46208;stroke-miterlimit:4;stroke-dasharray:none;stroke-dashoffset:0;stroke-opacity:1"/><path id="path1069" d="m 32,304.53332 -16,-16 v 0 0 0" style="display:none;opacity:.676;fill:none;fill-rule:evenodd;stroke:#5967df;stroke-width:.1;stroke-linecap:butt;stroke-linejoin:miter;stroke-miterlimit:4;stroke-dasharray:none;stroke-opacity:1"/><path id="path1069-2" d="m 0,320.53332 32,-32 v 0 0 0" style="display:none;opacity:.676;fill:none;fill-rule:evenodd;stroke:#5967df;stroke-width:.1;stroke-linecap:butt;stroke-linejoin:miter;stroke-miterlimit:4;stroke-dasharray:none;stroke-opacity:1"/><text id="text841" x="9.83" y="312.976" xml:space="preserve" style="font-style:normal;font-variant:normal;font-weight:400;font-stretch:normal;font-size:64px;line-height:125%;font-family:'MS UI Gothic';-inkscape-font-specification:'MS UI Gothic';letter-spacing:0;word-spacing:0;display:inline;fill:#c6c6c7;fill-opacity:1;stroke:none;stroke-width:1px;stroke-linecap:butt;stroke-linejoin:miter;stroke-opacity:1"><tspan style="font-style:normal;font-variant:normal;font-weight:500;font-stretch:normal;font-size:24px;font-family:'SF Pro Text';-inkscape-font-specification:'SF Pro Text Medium';fill:#c6c6c7;fill-opacity:1" id="tspan839" x="9.83" y="312.976">?</tspan></text><path id="path846" d="M 16,2 A 14,14 0 0 0 2,16 14,14 0 0 0 16,30 14,14 0 0 0 30,16 14,14 0 0 0 16,2 Z m 0,3 A 11,11 0 0 1 27,16 11,11 0 0 1 16,27 11,11 0 0 1 5,16 11,11 0 0 1 16,5 Z" transform="translate(0,288.53332)" style="display:inline;opacity:1;fill:#c6c6c7;fill-opacity:1;fill-rule:nonzero;stroke:none;stroke-width:.0838955;stroke-miterlimit:4;stroke-dasharray:none;stroke-dashoffset:0;stroke-opacity:1"/></g></svg>