<svg xmlns="http://www.w3.org/2000/svg" xmlns:svg="http://www.w3.org/2000/svg" id="svg8" width="32" height="32" version="1.1" viewBox="0 0 32 32"><metadata id="metadata5"/><g id="layer1" transform="translate(0,-288.53332)"><path id="path1091" d="m 18.035531,297.49779 -14.9999999,15 a 3.5355406,3.5355406 0 0 0 0,5 3.5355406,3.5355406 0 0 0 5,0 l 14.9999999,-15 z m -12.4999999,16 a 1.4995408,1.4995408 0 0 1 1.5,1.5 1.4995408,1.4995408 0 0 1 -1.5,1.5 1.4995408,1.4995408 0 0 1 -1.5,-1.5 1.4995408,1.4995408 0 0 1 1.5,-1.5 z" style="fill:#c6c6c7;fill-opacity:1;fill-rule:evenodd;stroke:none;stroke-width:1px;stroke-linecap:butt;stroke-linejoin:miter;stroke-opacity:1"/><path id="path1025" d="m 22.459782,290.53332 a 7.5027133,7.5003975 0 0 0 -5.368759,2.30541 7.5027133,7.5003975 0 0 0 0.214307,10.60425 7.5027133,7.5003975 0 0 0 10.607479,-0.21432 7.5027133,7.5003975 0 0 0 1.895827,-6.87413 l -4.493209,4.49188 -4.689189,-0.93756 -0.937842,-4.68776 4.491374,-4.49002 a 7.5027133,7.5003975 0 0 0 -1.719988,-0.19775 z" style="display:inline;opacity:1;fill:#c6c6c7;fill-opacity:1;fill-rule:nonzero;stroke:none;stroke-width:2.46208;stroke-miterlimit:4;stroke-dasharray:none;stroke-dashoffset:0;stroke-opacity:1"/><path id="path1069" d="m 32,304.53332 -16,-16 v 0 0 0" style="display:none;opacity:.676;fill:none;fill-rule:evenodd;stroke:#5967df;stroke-width:.1;stroke-linecap:butt;stroke-linejoin:miter;stroke-miterlimit:4;stroke-dasharray:none;stroke-opacity:1"/><path id="path1069-2" d="m 0,320.53332 32,-32 v 0 0 0" style="display:none;opacity:.676;fill:none;fill-rule:evenodd;stroke:#5967df;stroke-width:.1;stroke-linecap:butt;stroke-linejoin:miter;stroke-miterlimit:4;stroke-dasharray:none;stroke-opacity:1"/></g></svg>