<svg xmlns="http://www.w3.org/2000/svg" xmlns:svg="http://www.w3.org/2000/svg" id="svg8" width="32" height="32" version="1.1" viewBox="0 0 32 32"><metadata id="metadata5"/><g id="layer1" transform="translate(0,-288.53332)"><path style="fill:#77647b;fill-opacity:1;fill-rule:evenodd;stroke:none;stroke-width:1px;stroke-linecap:butt;stroke-linejoin:miter;stroke-opacity:1" id="path1091" d="m 2,313.53332 2.5,2.5 2.5,2.5 15,-15 -5,-5 z"/><path style="display:inline;opacity:1;fill:#4d4d4d;fill-opacity:1;fill-rule:nonzero;stroke:none;stroke-width:2.46207976;stroke-miterlimit:4;stroke-dasharray:none;stroke-dashoffset:0;stroke-opacity:1" id="path1025" d="m 22.459782,290.53332 a 7.5027133,7.5003975 0 0 0 -5.368759,2.30541 7.5027133,7.5003975 0 0 0 0.214307,10.60425 7.5027133,7.5003975 0 0 0 10.607479,-0.21432 7.5027133,7.5003975 0 0 0 1.895827,-6.87413 l -4.493209,4.49188 -4.689189,-0.93756 -0.937842,-4.68776 4.491374,-4.49002 a 7.5027133,7.5003975 0 0 0 -1.719988,-0.19775 z"/><path style="display:inline;opacity:.67600002;fill:none;fill-rule:evenodd;stroke:#5967df;stroke-width:.1;stroke-linecap:butt;stroke-linejoin:miter;stroke-miterlimit:4;stroke-dasharray:none;stroke-opacity:1" id="path1069" d="m 32,304.53332 -16,-16 v 0 0 0"/><path style="display:inline;opacity:.67600002;fill:none;fill-rule:evenodd;stroke:#5967df;stroke-width:.1;stroke-linecap:butt;stroke-linejoin:miter;stroke-miterlimit:4;stroke-dasharray:none;stroke-opacity:1" id="path1069-2" d="m 0,320.53332 32,-32 v 0 0 0"/><circle style="opacity:.67600002;fill:#77647b;fill-opacity:1;fill-rule:nonzero;stroke:none;stroke-width:.16000006;stroke-miterlimit:4;stroke-dasharray:none;stroke-dashoffset:0;stroke-opacity:1" id="path1093" cx="-220.287" cy="226.651" r="3.536" transform="rotate(-45)"/><circle style="display:inline;opacity:.67600002;fill:#77647b;fill-opacity:1;fill-rule:nonzero;stroke:none;stroke-width:.0670002;stroke-miterlimit:4;stroke-dasharray:none;stroke-dashoffset:0;stroke-opacity:1" id="path1093-7" cx="4.5" cy="316.034" r="1.5"/></g></svg>