<svg xmlns="http://www.w3.org/2000/svg" xmlns:svg="http://www.w3.org/2000/svg" id="svg8" width="32" height="32" version="1.1" viewBox="0 0 32 32"><metadata id="metadata5"/><g id="layer1" transform="translate(0,-288.53332)"><path style="fill:#77647b;fill-opacity:1;fill-rule:evenodd;stroke:none;stroke-width:1px;stroke-linecap:butt;stroke-linejoin:miter;stroke-opacity:1" id="path1091" d="M 23.171875,3.171875 17,11 c 0,0 -4,-3 -5.5,-1.5 l 11,11 C 24,19 21,15 21,15 L 28.828125,8.828125 27.5,4.5 Z" transform="translate(0,288.53332)"/><path style="display:none;opacity:.67600002;fill:none;fill-rule:evenodd;stroke:#5967df;stroke-width:.1;stroke-linecap:butt;stroke-linejoin:miter;stroke-miterlimit:4;stroke-dasharray:none;stroke-opacity:1" id="path1069" d="m 32,304.53332 -16,-16 v 0 0 0"/><path style="display:none;opacity:.67600002;fill:none;fill-rule:evenodd;stroke:#5967df;stroke-width:.1;stroke-linecap:butt;stroke-linejoin:miter;stroke-miterlimit:4;stroke-dasharray:none;stroke-opacity:1" id="path1069-2" d="m 0,320.53332 32,-32 v 0 0 0"/><circle style="opacity:.67600002;fill:#77647b;fill-opacity:1;fill-rule:nonzero;stroke:none;stroke-width:.18101904;stroke-miterlimit:4;stroke-dasharray:none;stroke-dashoffset:0;stroke-opacity:1" id="path1093" cx="-26" cy="-294.533" r="4" transform="scale(-1)"/><circle style="display:inline;opacity:.67600002;fill:#ff7f2a;fill-opacity:1;fill-rule:nonzero;stroke:none;stroke-width:.08936096;stroke-miterlimit:4;stroke-dasharray:none;stroke-dashoffset:0;stroke-opacity:1" id="path1093-7" cx="-26" cy="-294.533" r="2" transform="scale(-1)"/><path style="fill:#59d2aa;fill-opacity:.69658119;fill-rule:evenodd;stroke:none;stroke-width:1px;stroke-linecap:butt;stroke-linejoin:miter;stroke-opacity:1" id="path822" d="m 13,318.53332 -11,-11 9.5,-9.5 11,11 z"/><path style="fill:#aad400;fill-opacity:.69658119;fill-rule:evenodd;stroke:none;stroke-width:1px;stroke-linecap:butt;stroke-linejoin:miter;stroke-opacity:1" id="path820" d="m 22,309.53332 -11,-11 -1,1 11,11 z"/><path style="fill:#a8d100;fill-opacity:.69658119;fill-rule:evenodd;stroke:none;stroke-width:1px;stroke-linecap:butt;stroke-linejoin:miter;stroke-opacity:1" id="path823-3" d="m 5,310.53332 5,-5 -1,-1 -5,5 z"/><path style="fill:#a8d100;fill-opacity:.69658119;fill-rule:evenodd;stroke:none;stroke-width:1px;stroke-linecap:butt;stroke-linejoin:miter;stroke-opacity:1" id="path823-3-6" d="m 7.5,313.03332 2,-2 -1,-1 -2,2 z"/><path style="fill:#a8d100;fill-opacity:.69658119;fill-rule:evenodd;stroke:none;stroke-width:1px;stroke-linecap:butt;stroke-linejoin:miter;stroke-opacity:1" id="path823-3-7" d="m 11,316.53332 4,-4 -1,-1 -4,4 z"/><path style="display:none;fill:none;fill-rule:evenodd;stroke:#000;stroke-width:.1;stroke-linecap:butt;stroke-linejoin:miter;stroke-miterlimit:4;stroke-dasharray:none;stroke-opacity:1" id="path825" d="m 8.8284271,311.70489 -5.6568542,5.65686"/><path id="path827" d="m 8.828,317.36132 -5.656,-5.656" style="display:none;fill:none;fill-rule:evenodd;stroke:#000;stroke-width:.1;stroke-linecap:butt;stroke-linejoin:miter;stroke-miterlimit:4;stroke-dasharray:none;stroke-opacity:1"/></g></svg>