<svg xmlns="http://www.w3.org/2000/svg" xmlns:svg="http://www.w3.org/2000/svg" id="svg8" width="32" height="32" version="1.1" viewBox="0 0 32 32"><metadata id="metadata5"/><g id="layer1" transform="translate(0,-288.53332)"><path id="path1091" d="m 26,2 a 4,4 0 0 0 -2.826172,1.171875 h -0.002 l -0.01758,0.021484 A 4,4 0 0 0 22.617188,3.875 L 17,11 C 17,11 13,8 11.5,9.5 L 11,10 22,21 22.5,20.5 C 24,19 21,15 21,15 l 7.105469,-5.6035156 a 4,4 0 0 0 0.710937,-0.5585938 l 0.01172,-0.00977 v -0.00195 A 4,4 0 0 0 30,6 4,4 0 0 0 26,2 Z m 0,2 a 2,2 0 0 1 2,2 2,2 0 0 1 -2,2 2,2 0 0 1 -2,-2 2,2 0 0 1 2,-2 z m -16,7 -8,8 2,2 5,-5 1,1 -5,5 1.5,1.5 2,-2 1,1 -2,2 2.5,2.5 4,-4 1,1 -4,4 2,2 8,-8 z" transform="translate(0,288.53332)" style="fill:#c6c6c7;fill-opacity:1;fill-rule:evenodd;stroke:none;stroke-width:1px;stroke-linecap:butt;stroke-linejoin:miter;stroke-opacity:1"/><path id="path1069" d="m 32,304.53332 -16,-16 v 0 0 0" style="display:none;opacity:.676;fill:none;fill-rule:evenodd;stroke:#5967df;stroke-width:.1;stroke-linecap:butt;stroke-linejoin:miter;stroke-miterlimit:4;stroke-dasharray:none;stroke-opacity:1"/><path id="path1069-2" d="m 0,320.53332 32,-32 v 0 0 0" style="display:none;opacity:.676;fill:none;fill-rule:evenodd;stroke:#5967df;stroke-width:.1;stroke-linecap:butt;stroke-linejoin:miter;stroke-miterlimit:4;stroke-dasharray:none;stroke-opacity:1"/><path id="path825" d="m 8.8284271,311.70489 -5.6568542,5.65686" style="display:none;fill:none;fill-rule:evenodd;stroke:#000;stroke-width:.1;stroke-linecap:butt;stroke-linejoin:miter;stroke-miterlimit:4;stroke-dasharray:none;stroke-opacity:1"/><path style="display:none;fill:none;fill-rule:evenodd;stroke:#000;stroke-width:.1;stroke-linecap:butt;stroke-linejoin:miter;stroke-miterlimit:4;stroke-dasharray:none;stroke-opacity:1" id="path827" d="m 8.828,317.36132 -5.656,-5.656"/></g></svg>