<svg xmlns="http://www.w3.org/2000/svg" xmlns:svg="http://www.w3.org/2000/svg" id="svg8" width="32" height="32" version="1.1" viewBox="0 0 32 32"><metadata id="metadata5"/><g id="layer1" transform="translate(0,-288.53332)"><path id="rect97" d="m 13,2 -0.9375,4.6875 h 7.875 L 19,2 H 16 Z M 12.037109,25.1875 13,30 h 3 3 l 0.962891,-4.8125 z" transform="translate(0,288.53332)" style="display:inline;fill:#c6c6c7;fill-opacity:1"/><path style="display:inline;fill:#c6c6c7;fill-opacity:1" id="path152" d="m 2.3756443,300.1314 3.5907441,3.15565 3.9375,-6.81996 -4.5282441,-1.53185 -1.5,2.59808 z m 19.5995187,12.42763 4.649193,1.57237 1.5,-2.59808 1.5,-2.59808 -3.686302,-3.24013 z"/><path id="path154" d="m 5.3756477,314.1314 4.5282451,-1.53185 -3.9375086,-6.81996 -3.5907431,3.15565 1.5000033,2.59808 z m 20.5624023,-10.75987 3.686309,-3.24013 -1.500003,-2.59808 -1.500003,-2.59808 -4.649186,1.57237 z" style="display:inline;fill:#c6c6c7;fill-opacity:1"/><path id="ellipse111" d="M 16,5 A 11.000002,11 0 0 0 5,16 11.000002,11 0 0 0 16,27 11.000002,11 0 0 0 27,16 11.000002,11 0 0 0 16,5 Z m 0,4.5 A 6.5,6.5 0 0 1 22.5,16 6.5,6.5 0 0 1 16,22.5 6.5,6.5 0 0 1 9.5,16 6.5,6.5 0 0 1 16,9.5 Z" transform="translate(0,288.53332)" style="display:inline;fill:#c6c6c7;stroke-width:1.0999999;fill-opacity:1"/></g></svg>