<svg xmlns="http://www.w3.org/2000/svg" xmlns:svg="http://www.w3.org/2000/svg" id="svg8" width="32" height="32" version="1.1" viewBox="0 0 32 32"><defs id="defs2"><marker style="overflow:visible" id="Arrow1Lend" orient="auto" refX="0" refY="0"><path style="fill-rule:evenodd;stroke:#000;stroke-width:1pt" id="path921" d="M 0.0,0.0 L 5.0,-5.0 L -12.5,0.0 L 5.0,5.0 L 0.0,0.0 z" transform="scale(0.8) rotate(180) translate(12.5,0)"/></marker></defs><metadata id="metadata5"/><g id="layer1" transform="translate(0,-288.53332)"><path id="rect26" d="m 44.887707,290.52429 -6.423244,1.47349 1.414217,1.41422 -4.242641,4.24264 2.12132,2.12132 L 42,295.53332 l 1.414212,1.41421 z" style="fill:#4d4d4d;stroke-width:.781736"/><path id="rect860" d="m 80,262.53332 v 3 10 h 3 v -10 h 22 v 22 H 95 v 3 h 10 3 v -3 -25 z m 0,16 v 9 3 h 3 9 v -3 h -9 v -9 z" style="fill:#4d4d4d;fill-opacity:1;stroke:none;stroke-width:3;stroke-miterlimit:4;stroke-dasharray:none;stroke-dashoffset:27.8862;stroke-opacity:1"/><path id="rect1188" d="m 2,293.53332 v 1.49988 6.50012 h 3 v -5.00012 l 13,1.2e-4 v -3 L 3.5,293.5332 Z m 19,3 6,-1.2e-4 v 9.00012 h 3 v -10.50012 -1.5 h -1.5 l -7.5,1.2e-4 z M 2,314.0332 v 1.5 h 1.5 8.699219 v -3 H 5 v -7.80078 H 2 Z m 25,-1.5 -8,1.2e-4 v 3 l 9.5,-1.2e-4 H 30 v -1.5 -5.49988 h -3 z" style="color:#000;font-style:normal;font-variant:normal;font-weight:400;font-stretch:normal;font-size:medium;line-height:normal;font-family:sans-serif;font-variant-ligatures:normal;font-variant-position:normal;font-variant-caps:normal;font-variant-numeric:normal;font-variant-alternates:normal;font-feature-settings:normal;text-indent:0;text-align:start;text-decoration:none;text-decoration-line:none;text-decoration-style:solid;text-decoration-color:#000;letter-spacing:normal;word-spacing:normal;text-transform:none;writing-mode:lr-tb;direction:ltr;text-orientation:mixed;dominant-baseline:auto;baseline-shift:baseline;text-anchor:start;white-space:normal;shape-padding:0;clip-rule:nonzero;display:inline;overflow:visible;visibility:visible;opacity:1;isolation:auto;mix-blend-mode:normal;color-interpolation:sRGB;color-interpolation-filters:linearRGB;solid-color:#000;solid-opacity:1;vector-effect:none;fill:#c6c6c7;fill-opacity:1;fill-rule:nonzero;stroke:none;stroke-width:3;stroke-linecap:butt;stroke-linejoin:miter;stroke-miterlimit:4;stroke-dasharray:18,3;stroke-dashoffset:2.7;stroke-opacity:1;color-rendering:auto;image-rendering:auto;shape-rendering:auto;text-rendering:auto;enable-background:accumulate"/><rect id="rect24" width="14" height="11" x="2" y="304.533" style="fill:#c6c6c7;stroke-width:1.12815;fill-opacity:1"/></g></svg>