<svg xmlns="http://www.w3.org/2000/svg" xmlns:svg="http://www.w3.org/2000/svg" id="svg8" width="32" height="32" version="1.1" viewBox="0 0 32 32"><defs id="defs2"><marker style="overflow:visible" id="Arrow1Lend" orient="auto" refX="0" refY="0"><path style="fill-rule:evenodd;stroke:#000;stroke-width:1pt" id="path921" d="M 0.0,0.0 L 5.0,-5.0 L -12.5,0.0 L 5.0,5.0 L 0.0,0.0 z" transform="scale(0.8) rotate(180) translate(12.5,0)"/></marker></defs><metadata id="metadata5"/><g id="layer1" transform="translate(0,-288.53332)"><path id="rect1057" d="M 2,6 V 26 H 30 V 6 Z m 3,2 h 4 v 4 H 5 Z m 6,0 h 4 v 4 h -4 z m 6,0 h 4 v 4 h -4 z m 6,0 h 4 v 4 H 23 Z M 8,14 h 4 v 4 H 8 Z m 6,0 h 4 v 4 h -4 z m 6,0 h 4 v 4 H 20 Z M 6,20 h 20 v 4 H 6 Z" transform="translate(0,288.53332)" style="fill:#c6c6c7;fill-opacity:1;stroke:none;stroke-width:2.86039;stroke-miterlimit:4;stroke-dasharray:17.1623,2.86039000000000021;stroke-dashoffset:2.7;stroke-opacity:1"/></g></svg>