<svg xmlns="http://www.w3.org/2000/svg" xmlns:svg="http://www.w3.org/2000/svg" id="svg7" width="16" height="16" version="1.1" viewBox="0 0 16 16"><metadata id="metadata11"/><defs id="defs3"><style id="current-color-scheme" type="text/css">.ColorScheme-Text{color:#444}</style></defs><path id="rect22" d="M 1 2 L 1 14 L 2 14 L 15 14 L 15 2 L 2 2 L 1 2 z M 5 4 L 6 4 L 6 5 L 6.5 5 C 7.154 5 7.7022031 5.418 7.9082031 6 L 6 6 L 6 7 L 6.5 7 C 7.331 7 8 7.669 8 8.5 C 8 9.331 7.331 10 6.5 10 L 6 10 L 6 11 L 5 11 L 5 10 L 4.5 10 C 3.8458 10 3.2977969 9.582 3.0917969 9 L 5 9 L 5 8 L 4.5 8 C 3.669 8 3 7.331 3 6.5 C 3 5.669 3.669 5 4.5 5 L 5 5 L 5 4 z M 4.5 6 C 4.223 6 4 6.223 4 6.5 C 4 6.777 4.223 7 4.5 7 L 5 7 L 5 6 L 4.5 6 z M 6 8 L 6 9 L 6.5 9 C 6.7767 9.0129 7 8.777 7 8.5 C 7 8.223 6.777 8 6.5 8 L 6 8 z M 9 10 L 13 10 L 13 11 L 9 11 L 9 10 z" style="display:inline;opacity:1;fill:#c6c6c7;fill-opacity:1;fill-rule:nonzero;stroke:none;stroke-width:.20999125;stroke-miterlimit:4;stroke-dasharray:none;stroke-dashoffset:0;stroke-opacity:1"/><path id="path5" d="M 2,1 C 0.89200005,1 4.9999999e-8,1.892 4.9999999e-8,3 V 13 C 4.9999999e-8,14.108 0.89200005,15 2,15 h 12 c 1.108,0 2,-0.892 2,-2 V 3 C 16,1.892 15.108,1 14,1 Z m 2,2 h 0.9999999 v 1 h 0.5 c 0.654,0 1.2022,0.418 1.4082,1 h -1.9082 v 1 h 0.5 c 0.831,0 1.5,0.669 1.5,1.5 0,0.831 -0.669,1.5 -1.5,1.5 h -0.5 v 1 H 4 V 9 H 3.5 C 2.8458,9 2.2978,8.582 2.0918,8 H 4 V 7 H 3.5 C 2.669,7 2,6.331 2,5.5 2,4.669 2.669,4 3.5,4 H 4 Z M 3.5,5 C 3.223,5 3,5.223 3,5.5 3,5.777 3.223,6 3.5,6 H 4 V 5 Z m 1.4999999,2 v 1 h 0.5 c 0.2767,0.0129 0.5,-0.223 0.5,-0.5 0,-0.277 -0.223,-0.5 -0.5,-0.5 z m 3,2 H 12 v 1 H 7.9999999 Z" class="ColorScheme-Text" style="color:#444;display:none;fill:currentColor"/></svg>